<?xml version="1.0" standalone="no"?><!DOCTYPE svg PUBLIC "-//W3C//DTD SVG 1.1//EN" "http://www.w3.org/Graphics/SVG/1.1/DTD/svg11.dtd"><svg t="1683259233827" class="icon" viewBox="0 0 1212 1024" version="1.1" xmlns="http://www.w3.org/2000/svg" p-id="1665" xmlns:xlink="http://www.w3.org/1999/xlink" width="236.71875" height="200"><path d="M665.055005 584.73827l23.647467-23.647467a20.816432 20.816432 0 0 1 29.441374 0l148.78892 148.78892a20.816432 20.816432 0 0 1 0 29.441374l-23.675222 23.671753a20.816432 20.816432 0 0 1-29.437905 0l-148.837492-148.837492a20.816432 20.816432 0 0 1 0.069389-29.413619z" fill="#13227a" p-id="1666"></path><path d="M828.394611 765.182045a40.487961 40.487961 0 0 1-28.726676-11.865367l-125.176147-125.176146a40.592043 40.592043 0 0 1 28.726676-69.388108 40.210409 40.210409 0 0 1 28.726677 11.865366l125.176147 125.141453a40.626737 40.626737 0 0 1 0 57.383965 40.349185 40.349185 0 0 1-28.726677 12.038837z m-124.898594-200.08061a34.347113 34.347113 0 0 0-24.285838 58.632952l124.898594 125.141452a34.347113 34.347113 0 0 0 48.571676 0l2.255114 2.185726-2.22042-2.22042a34.347113 34.347113 0 0 0 0-48.571675l-124.933288-125.141453a34.208337 34.208337 0 0 0-24.285838-10.026582zM547.299916 702.413562l23.647468-23.647467a20.816432 20.816432 0 0 1 29.437904 0l148.78892 148.78892a20.816432 20.816432 0 0 1 0 29.437905l-23.671753 23.671753a20.816432 20.816432 0 0 1-29.441374 0l-148.813206-148.813206a20.816432 20.816432 0 0 1 0.052041-29.437905z" fill="#13227a" p-id="1667"></path><path d="M710.781768 882.864276a40.279797 40.279797 0 0 1-28.691982-11.90006l-125.176147-125.176147a40.626737 40.626737 0 0 1 57.453353-57.453354l125.141453 125.176147a40.626737 40.626737 0 0 1 0 57.383965 40.279797 40.279797 0 0 1-28.726677 11.969449z m-125.245535-200.080609a34.347113 34.347113 0 0 0-24.285838 58.598257l125.141453 125.176147a34.312419 34.312419 0 0 0 48.571676 0l2.289807 2.151031-2.220419-2.220419a34.416502 34.416502 0 0 0 0-48.571676l-125.210841-125.106759a34.138949 34.138949 0 0 0-24.285838-10.026581z" fill="#13227a" p-id="1668"></path><path d="M615.407814 1023.999688a35.492017 35.492017 0 0 1-25.257272-10.408216L83.40919 506.815425a286.572886 286.572886 0 0 1 0-404.220424l19.185811-19.185811a286.572886 286.572886 0 0 1 404.220424 0l531.998624 531.998624-398.148964 398.148963a35.492017 35.492017 0 0 1-25.257271 10.442911zM304.687866 55.653946a228.49504 228.49504 0 0 0-162.749807 67.098301l-19.185812 19.359282a230.958318 230.958318 0 0 0 0 325.534309l492.655567 492.655567 344.824203-344.893591-492.655567-492.655567a228.529734 228.529734 0 0 0-162.888584-67.098301z" fill="#13227a" p-id="1669"></path><path d="M1011.232276 643.683468l-40.696125-38.16346 123.961855-131.837405a230.368519 230.368519 0 0 0-9.9225-325.222062l-21.406231-20.122552a230.333825 230.333825 0 0 0-325.256757 9.9225l-101.098473 107.551567-40.661431-38.163459 101.098473-107.551567a286.26064 286.26064 0 0 1 404.185729-12.351084l21.406232 20.157246a286.225946 286.225946 0 0 1 12.316389 404.151035z" fill="#13227a" p-id="1670"></path></svg>